<svg xmlns="http://www.w3.org/2000/svg" width="512" height="512" viewBox="0 0 512 512">
  <defs>
    <linearGradient id="bg" x1="0%" y1="0%" x2="100%" y2="100%">
      <stop offset="0%" style="stop-color:#0f172a;stop-opacity:1" />
      <stop offset="100%" style="stop-color:#1e293b;stop-opacity:1" />
    </linearGradient>
    <linearGradient id="accent" x1="0%" y1="0%" x2="100%" y2="100%">
      <stop offset="0%" style="stop-color:#dc2626;stop-opacity:1" />
      <stop offset="100%" style="stop-color:#ef4444;stop-opacity:1" />
    </linearGradient>
    <linearGradient id="text" x1="0%" y1="0%" x2="100%" y2="100%">
      <stop offset="0%" style="stop-color:#ffffff;stop-opacity:1" />
      <stop offset="100%" style="stop-color:#e2e8f0;stop-opacity:1" />
    </linearGradient>
  </defs>
  <rect width="512" height="512" rx="64" fill="url(#bg)"/>
  <rect x="8" y="8" width="496" height="496" rx="56" fill="none" stroke="url(#accent)" stroke-width="4"/>
  <path d="M256 80 L380 140 L380 280 Q380 380 256 432 Q132 380 132 280 L132 140 Z" 
        fill="none" stroke="url(#accent)" stroke-width="6" opacity="0.8"/>
  <path d="M256 120 L340 168 L340 272 Q340 350 256 392 Q172 350 172 272 L172 168 Z" 
        fill="url(#accent)" opacity="0.15"/>
  <text x="256" y="280" text-anchor="middle" font-family="Arial, Helvetica, sans-serif" 
        font-size="120" font-weight="900" fill="url(#text)" letter-spacing="8">AAE</text>
  <text x="256" y="340" text-anchor="middle" font-family="Arial, Helvetica, sans-serif" 
        font-size="28" font-weight="600" fill="#94a3b8" letter-spacing="6">AGENT ARENA</text>
  <rect x="180" y="100" width="152" height="4" rx="2" fill="url(#accent)"/>
  <rect x="180" y="360" width="152" height="4" rx="2" fill="url(#accent)"/>
</svg>
